name Walk4.mot
datacolumns 19
datarows 17
range 2.14400000 2.16000000
endheader

                time	   L_ground_force_vx	   L_ground_force_vy	   L_ground_force_vz	   L_ground_force_px	   L_ground_force_py	   L_ground_force_pz	   R_ground_force_vx	   R_ground_force_vy	   R_ground_force_vz	   R_ground_force_px	   R_ground_force_py	   R_ground_force_pz	   L_ground_torque_x	   L_ground_torque_y	   L_ground_torque_z	   R_ground_torque_x	   R_ground_torque_y	   R_ground_torque_z	
          2.14400000	         -0.00000000	         -0.00000000	          0.00000000	          0.00000000	          0.00000000	          0.00000000	          9.09448964	         40.26383642	          0.47858651	          0.16602793	          0.00000000	          0.03388519	          0.00000000	         -0.00000000	          0.00000000	          0.00000000	          0.14397234	          0.00000000	
          2.14500000	         -0.00000000	         -0.00000000	          0.00000000	          0.00000000	          0.00000000	          0.00000000	          8.31060296	         37.31585734	          0.41519467	          0.16161120	          0.00000000	          0.03301738	          0.00000000	         -0.00000000	          0.00000000	          0.00000000	          0.14091156	          0.00000000	
          2.14600000	         -0.00000000	         -0.00000000	          0.00000000	          0.00000000	          0.00000000	          0.00000000	          7.56218876	         34.48534133	          0.35472477	          0.15706198	          0.00000000	          0.03212164	          0.00000000	         -0.00000000	          0.00000000	          0.00000000	          0.13764688	          0.00000000	
          2.14700000	         -0.00000000	         -0.00000000	          0.00000000	          0.00000000	          0.00000000	          0.00000000	          6.84896814	         31.77107654	          0.29735370	          0.15238882	          0.00000000	          0.03119942	          0.00000000	         -0.00000000	          0.00000000	          0.00000000	          0.13419092	          0.00000000	
          2.14800000	         -0.00000000	         -0.00000000	          0.00000000	          0.00000000	          0.00000000	          0.00000000	          6.17058145	         29.17179896	          0.24321355	          0.14760156	          0.00000000	          0.03025242	          0.00000000	         -0.00000000	          0.00000000	          0.00000000	          0.13055796	          0.00000000	
          2.14900000	         -0.00000000	         -0.00000000	         -0.00000000	          0.00000000	          0.00000000	          0.00000000	          5.52659080	         26.68620342	          0.19239007	          0.14271146	          0.00000000	          0.02928262	          0.00000000	         -0.00000000	          0.00000000	          0.00000000	          0.12676434	          0.00000000	
          2.15000000	          0.00000000	         -0.00000000	         -0.00000000	          0.00000000	          0.00000000	          0.00000000	          4.91648284	         24.31295031	          0.14492218	          0.13773129	          0.00000000	          0.02829238	          0.00000000	         -0.00000000	          0.00000000	          0.00000000	          0.12282851	          0.00000000	
          2.15100000	          0.00000000	          0.00000000	         -0.00000000	          0.00000000	          0.00000000	          0.00000000	          4.33967188	         22.05066461	          0.10080326	          0.13267538	          0.00000000	          0.02728438	          0.00000000	         -0.00000000	          0.00000000	          0.00000000	          0.11877079	          0.00000000	
          2.15200000	          0.00000000	          0.00000000	         -0.00000000	          0.00000000	          0.00000000	          0.00000000	          3.79550345	         19.89792355	          0.05998479	          0.12755977	          0.00000000	          0.02626176	          0.00000000	         -0.00000000	          0.00000000	          0.00000000	          0.11461273	          0.00000000	
          2.15300000	          0.00000000	          0.00000000	         -0.00000000	          0.00000000	          0.00000000	          0.00000000	          3.28325868	         17.85323106	          0.02238251	          0.12240225	          0.00000000	          0.02522806	          0.00000000	         -0.00000000	          0.00000000	          0.00000000	          0.11037635	          0.00000000	
          2.15400000	          0.00000000	          0.00000000	         -0.00000000	          0.00000000	          0.00000000	          0.00000000	          2.80215984	         15.91497807	         -0.01211476	          0.11722225	          0.00000000	          0.02418729	          0.00000000	         -0.00000000	          0.00000000	          0.00000000	          0.10608340	          0.00000000	
          2.15500000	          0.00000000	          0.00000000	         -0.00000000	          0.00000000	          0.00000000	          0.00000000	          2.35137723	         14.08139166	         -0.04363416	          0.11203994	          0.00000000	          0.02314366	          0.00000000	         -0.00000000	          0.00000000	          0.00000000	          0.10175463	          0.00000000	
          2.15600000	          0.00000000	          0.00000000	         -0.00000000	          0.00000000	          0.00000000	          0.00000000	          1.93003673	         12.35049411	         -0.07230876	          0.10687488	          0.00000000	          0.02210131	          0.00000000	         -0.00000000	          0.00000000	          0.00000000	          0.09740940	          0.00000000	
          2.15700000	          0.00000000	          0.00000000	         -0.00000000	          0.00000000	          0.00000000	          0.00000000	          1.53722719	         10.72009503	         -0.09827209	          0.10174512	          0.00000000	          0.02106407	          0.00000000	         -0.00000000	          0.00000000	          0.00000000	          0.09306553	          0.00000000	
          2.15800000	          0.00000000	          0.00000000	         -0.00000000	          0.00000000	          0.00000000	          0.00000000	          1.17200713	          9.18781053	         -0.12165657	          0.09666704	          0.00000000	          0.02003542	          0.00000000	         -0.00000000	          0.00000000	          0.00000000	          0.08873932	          0.00000000	
          2.15900000	          0.00000000	          0.00000000	         -0.00000000	          0.00000000	          0.00000000	          0.00000000	          0.83341086	          7.75108864	         -0.14259308	          0.09165544	          0.00000000	          0.01901853	          0.00000000	         -0.00000000	          0.00000000	          0.00000000	          0.08444562	          0.00000000	
          2.16000000	          0.00000000	          0.00000000	         -0.00000000	          0.00000000	          0.00000000	          0.00000000	          0.52045419	          6.40723326	         -0.16121066	          0.08672360	          0.00000000	          0.01801622	          0.00000000	         -0.00000000	          0.00000000	          0.00000000	          0.08019789	          0.00000000	
